<svg version="1.1" id="Layer_1" xmlns="http://www.w3.org/2000/svg" xmlns:xlink="http://www.w3.org/1999/xlink" x="0px" y="0px"
	 width="100%" viewBox="0 0 1024 1024" enable-background="new 0 0 1024 1024" xml:space="preserve">
<path fill="#000000" opacity="1.000000" stroke="none" 
	d="
M433.693481,724.718140 
	C434.864960,722.859314 435.882233,721.333313 436.818329,719.759094 
	C438.405365,717.090271 440.534882,716.110596 443.545929,717.311401 
	C444.621063,717.740051 445.788269,717.940979 446.917450,718.230347 
	C458.734100,721.258728 458.658234,721.261719 459.288452,733.477600 
	C459.945496,746.213867 460.769501,758.941467 461.530151,771.835815 
	C464.099670,771.325623 464.552032,769.319580 465.472198,767.907288 
	C472.929291,756.461914 480.386200,745.014038 487.634125,733.436157 
	C489.650452,730.215271 491.837219,728.983704 495.440155,730.506958 
	C496.804688,731.083984 498.331451,731.268188 499.770264,731.680176 
	C511.334686,734.991333 508.975281,731.988037 510.040161,743.969910 
	C512.027283,766.329590 513.056152,788.774475 514.474609,811.184509 
	C514.526489,812.003479 514.481201,812.828613 514.481201,814.381348 
	C508.406738,813.926147 502.695404,812.608826 497.393707,810.053101 
	C495.266357,809.027649 495.897034,806.192139 495.760529,804.069336 
	C494.820740,789.456543 493.915131,774.841492 492.947296,760.230652 
	C492.887238,759.324219 493.160797,758.202820 491.740204,757.263306 
	C485.132782,767.416138 478.525391,777.544556 471.947021,787.691833 
	C469.953552,790.766724 467.818390,793.779480 466.146698,797.025940 
	C464.066956,801.064819 461.307861,801.632141 457.119415,800.420044 
	C446.179504,797.254150 446.211548,797.413818 445.659912,786.064087 
	C445.053528,773.589417 444.290009,761.122192 443.570160,748.653198 
	C443.485596,747.188354 443.386658,745.688293 441.880127,743.959595 
	C437.244476,751.246887 432.735291,758.341614 428.219513,765.432190 
	C423.923981,772.176941 419.514648,778.852539 415.376648,785.692383 
	C413.804077,788.291809 411.976166,789.042175 409.179504,788.214111 
	C405.073608,786.998352 400.936493,785.888123 395.785461,784.445190 
	C408.612335,764.239075 421.057587,744.634155 433.693481,724.718140 
z"/>
<path fill="#000000" opacity="1.000000" stroke="none" 
	d="
M628.609680,238.637909 
	C637.902893,222.431152 647.102661,206.593674 656.089844,190.636520 
	C658.113037,187.044342 659.852295,186.982117 663.559326,188.605331 
	C670.753357,191.755386 672.777893,196.588852 672.539368,204.217606 
	C672.128967,217.344498 672.931763,230.509674 673.249695,243.658218 
	C673.276917,244.782700 673.017029,246.015717 674.590454,247.462769 
	C680.987183,243.917847 687.613708,240.266830 694.219727,236.579025 
	C701.634277,232.439941 709.011353,228.233490 716.442322,224.124298 
	C720.158203,222.069458 730.693848,225.435242 732.654297,229.175064 
	C733.427063,230.649094 732.533020,231.748840 731.891907,232.866165 
	C720.457336,252.793610 708.954529,272.682129 697.602539,292.656464 
	C695.948242,295.567139 694.458618,295.741302 691.683105,294.160278 
	C680.376465,287.719452 680.300720,287.779053 686.566406,276.654266 
	C691.450562,267.982391 696.426025,259.361969 700.803833,250.065109 
	C690.398193,255.853088 679.935791,261.542633 669.622314,267.490387 
	C666.619446,269.222107 664.254150,269.080872 661.331116,267.373383 
	C658.355225,265.634979 657.898865,263.143036 657.900513,260.202606 
	C657.907043,248.900208 657.903198,237.597809 657.903198,225.385513 
	C655.150818,226.929901 654.616028,228.673752 653.776550,230.123901 
	C648.438538,239.345444 643.075684,248.553513 637.849182,257.838165 
	C636.377014,260.453400 635.062195,261.382233 631.986877,259.776917 
	C620.011353,253.525589 619.956177,253.634018 626.721741,242.009705 
	C627.307983,241.002396 627.867493,239.979538 628.609680,238.637909 
z"/>
<path fill="#000000" opacity="1.000000" stroke="none" 
	d="
M790.178589,407.984741 
	C807.650269,405.001709 824.709656,402.207275 841.714905,399.115173 
	C845.987244,398.338379 847.465088,399.516907 848.468811,403.769104 
	C850.020569,410.342926 848.892456,415.146271 844.049011,420.298401 
	C833.018127,432.032318 822.810486,444.540070 811.567017,457.544403 
	C824.626038,455.253815 836.658997,453.147888 848.690125,451.031311 
	C855.971497,449.750275 856.153381,449.872498 857.255615,457.093536 
	C858.946228,468.169067 858.942749,468.148285 847.759155,470.057129 
	C828.247437,473.387512 808.720093,476.634369 789.246643,480.176331 
	C784.685547,481.005890 782.895447,479.997131 781.958008,475.218964 
	C780.745605,469.038940 781.512329,464.507172 786.132629,459.576660 
	C797.255798,447.706512 807.544373,435.054260 818.914734,421.852386 
	C808.784668,423.590485 799.698303,425.150635 790.611511,426.708069 
	C786.677185,427.382385 782.707397,427.897095 778.817749,428.769653 
	C775.529724,429.507202 774.178650,428.167755 773.750610,425.111786 
	C773.289490,421.820099 772.865906,418.505341 772.093628,415.280243 
	C771.349548,412.173096 772.696472,410.979736 775.474182,410.522278 
	C780.237305,409.737885 784.989441,408.886383 790.178589,407.984741 
z"/>
<path fill="#000000" opacity="1.000000" stroke="none" 
	d="
M245.148560,622.410034 
	C242.477264,623.470459 240.629715,623.557495 239.680573,620.619507 
	C235.439560,607.492004 229.623062,594.793884 227.370224,581.126587 
	C224.997696,566.733093 228.487045,553.737000 240.653076,544.627991 
	C252.625885,535.663757 265.962646,532.900146 280.148895,539.145874 
	C290.625061,543.758179 297.402588,552.169495 301.320374,562.636108 
	C305.456940,573.687317 308.773987,585.042847 312.640442,596.199036 
	C313.975983,600.052612 311.269409,600.380005 308.957245,601.151672 
	C289.710632,607.575256 270.453094,613.965881 251.200409,620.371216 
	C249.306900,621.001160 247.423889,621.662781 245.148560,622.410034 
M255.074310,599.454529 
	C266.299988,595.771545 277.533234,592.111328 288.744843,588.385925 
	C290.936127,587.657715 293.448853,587.077209 292.153870,583.633240 
	C290.106079,578.187317 288.593750,572.508423 286.173889,567.240967 
	C281.620544,557.329346 271.666656,552.988159 260.720520,555.593384 
	C249.400055,558.287659 243.166763,566.111816 243.134827,577.274231 
	C243.115158,584.138672 246.148300,590.165161 247.849915,596.562317 
	C248.852264,600.330688 250.757034,601.594055 255.074310,599.454529 
z"/>
<path fill="#000000" opacity="1.000000" stroke="none" 
	d="
M786.066895,326.045776 
	C792.786804,322.661407 799.171387,319.435059 805.581848,316.261017 
	C807.369202,315.376007 809.384338,314.201416 810.671692,316.884766 
	C816.564453,329.167511 824.175659,340.715637 828.074585,353.839752 
	C831.437500,365.159515 829.561584,375.756195 819.565369,383.463989 
	C809.469971,391.248260 798.794495,392.641510 787.684570,385.402863 
	C787.280396,385.139465 786.779663,385.024170 785.692932,384.584778 
	C781.209106,392.699799 776.694641,400.870270 771.480103,410.307678 
	C768.283020,403.899170 765.686279,398.774994 763.174255,393.609650 
	C762.417480,392.053711 763.399048,390.712128 764.109802,389.407684 
	C766.736389,384.587158 769.126099,379.610352 772.109436,375.020325 
	C774.386841,371.516510 774.736816,368.523926 772.410950,364.985016 
	C770.785217,362.511261 769.649658,359.715363 767.950378,356.388306 
	C762.998291,358.769226 758.168762,360.849701 753.584290,363.375092 
	C750.180908,365.249847 748.444214,364.659302 746.646484,361.137177 
	C740.461731,349.020203 740.342468,349.097198 752.318420,343.079315 
	C763.467590,337.476929 774.601013,331.843384 786.066895,326.045776 
M812.425842,356.225647 
	C811.026794,350.864716 808.261719,346.109009 805.750488,341.245026 
	C805.081787,339.949677 804.374512,338.194550 802.451050,339.103058 
	C795.481140,342.395264 788.575867,345.824493 781.277222,349.381866 
	C784.187134,354.953247 786.481201,359.931641 789.298828,364.593536 
	C792.919250,370.583740 798.171326,372.749878 803.488586,371.022614 
	C810.348206,368.794342 813.010376,364.697906 812.425842,356.225647 
z"/>
<path fill="#000000" opacity="1.000000" stroke="none" 
	d="
M353.469482,687.485168 
	C340.103394,699.302856 326.937286,710.814636 313.934448,722.508057 
	C310.654724,725.457458 308.588684,725.636230 305.605682,721.906738 
	C298.086273,712.505676 297.952637,712.706970 306.895599,704.416138 
	C310.178223,701.372925 314.058929,698.963745 317.227051,694.737183 
	C307.118347,691.875366 300.306915,685.636353 296.617981,676.019714 
	C294.247345,669.839661 294.173828,663.697754 296.106628,657.436768 
	C300.073853,644.585510 314.575256,634.152649 327.667755,634.762817 
	C341.196320,635.393311 352.204102,645.855530 355.948578,662.185791 
	C359.285065,658.004517 361.021149,661.075867 363.067749,663.374878 
	C370.678528,671.924255 370.704468,671.917847 362.302155,679.589478 
	C359.472900,682.172729 356.588959,684.695984 353.469482,687.485168 
M326.417084,682.851929 
	C336.836761,681.476562 344.450348,672.338318 342.281860,663.810242 
	C340.503174,656.815125 333.857544,651.795959 327.271179,652.473267 
	C319.516418,653.270813 312.175415,660.973816 312.054962,668.439880 
	C311.932251,676.047363 317.322449,681.783264 326.417084,682.851929 
z"/>
<path fill="#000000" opacity="1.000000" stroke="none" 
	d="
M777.415588,296.572357 
	C770.763367,289.312836 764.345093,282.316864 757.910217,275.336151 
	C757.705994,275.114655 757.330750,275.050781 756.600525,274.711395 
	C753.774353,277.175964 750.799866,279.770691 747.824524,282.364410 
	C745.219177,284.635559 747.341614,286.210938 748.716187,287.754486 
	C754.476685,294.222992 760.188354,300.741791 766.152771,307.019043 
	C768.762390,309.765533 768.447632,311.505524 765.733948,313.925018 
	C758.476624,320.395447 758.542725,320.520660 751.829041,313.225037 
	C746.210999,307.120087 740.660461,300.952972 734.761414,294.462830 
	C731.245911,297.524841 728.024414,300.341675 724.790466,303.144104 
	C722.406860,305.209686 723.710205,306.870026 725.291565,308.603027 
	C732.140259,316.108734 738.797485,323.797791 745.855042,331.100525 
	C749.213989,334.576202 749.723999,336.854553 745.676208,340.274628 
	C738.873657,346.022217 739.036133,346.310699 733.029419,339.719299 
	C722.706909,328.391968 712.507202,316.952057 702.120728,305.684021 
	C699.516052,302.858185 699.506470,301.084198 702.517090,298.393311 
	C719.157593,283.519897 735.636414,268.464294 752.073303,253.365250 
	C754.617126,251.028534 756.352966,250.402100 758.976624,253.367218 
	C769.903625,265.716125 780.963989,277.949371 792.131409,290.081360 
	C794.698669,292.870392 794.756348,294.815308 791.517090,296.785126 
	C791.094543,297.042053 790.736816,297.407959 790.357544,297.733307 
	C783.586060,303.542664 783.586365,303.543030 777.415588,296.572357 
z"/>
<path fill="#000000" opacity="1.000000" stroke="none" 
	d="
M403.293091,275.922302 
	C399.204559,276.029114 401.732208,278.068665 402.232361,278.992767 
	C405.006561,284.118317 407.904510,289.180145 410.885193,294.189362 
	C412.556580,296.998260 412.402618,298.895538 409.244385,300.621185 
	C394.809174,308.508423 398.657440,308.675354 391.251495,295.973389 
	C380.764435,277.987122 370.564575,259.833130 360.036194,241.871460 
	C357.940002,238.295364 358.243286,236.206573 362.024170,234.525940 
	C363.842133,233.717865 365.560333,232.656036 367.246216,231.586960 
	C370.012726,229.832626 372.717072,227.825027 375.116913,232.170074 
	C384.627136,215.503067 401.951996,212.144821 412.795776,216.733627 
	C425.850830,222.258179 435.186066,238.137238 432.881897,251.463654 
	C430.463135,265.452911 418.251373,275.684204 403.293091,275.922302 
M385.429230,247.938431 
	C386.360596,251.895798 388.086639,255.424408 390.994995,258.325470 
	C395.301819,262.621460 400.792328,263.811676 406.059082,261.575897 
	C413.317200,258.494751 416.526306,251.750504 414.416351,244.012405 
	C412.168060,235.766998 405.412537,231.024826 397.335480,232.022202 
	C389.761017,232.957520 385.405090,238.457474 385.429230,247.938431 
z"/>
<path fill="#000000" opacity="1.000000" stroke="none" 
	d="
M798.967285,522.942322 
	C792.492737,530.681030 788.277100,539.020996 788.003845,548.954529 
	C787.906067,552.507446 788.042236,556.246826 792.260620,557.606750 
	C796.413513,558.945618 798.958069,556.278992 800.817139,553.189941 
	C803.301086,549.062683 805.396118,544.702087 807.677002,540.451782 
	C808.857056,538.252930 809.998596,536.027771 811.293152,533.896851 
	C817.422607,523.807190 824.908936,520.014465 834.322754,522.157166 
	C844.420837,524.455627 851.334778,532.598328 852.177551,543.604370 
	C853.209534,557.079163 849.515747,569.238281 841.701111,580.263123 
	C839.415588,583.487427 837.219177,583.846497 834.338989,581.354492 
	C834.213623,581.246033 834.070862,581.157043 833.933105,581.063660 
	C826.289490,575.880798 826.325378,575.903015 831.032837,568.260742 
	C834.768433,562.196106 837.096130,555.700500 836.791077,548.435486 
	C836.637573,544.779846 835.339905,541.851562 831.629517,540.744446 
	C827.830017,539.610657 825.595032,542.095520 824.009521,544.933594 
	C820.521667,551.176392 817.450500,557.653992 813.904785,563.861938 
	C807.756775,574.625977 800.132446,578.847961 791.013428,576.911560 
	C780.578857,574.695862 773.615662,566.625854 772.846985,554.669312 
	C771.903625,539.995728 776.263367,526.773804 785.198120,515.050964 
	C787.864563,511.552582 790.530762,510.271759 794.123535,513.861023 
	C795.522949,515.259155 797.247253,516.347595 798.886597,517.486450 
	C801.234680,519.117676 801.389771,520.807007 798.967285,522.942322 
z"/>
<path fill="#000000" opacity="1.000000" stroke="none" 
	d="
M666.560913,752.431274 
	C664.948486,765.062805 655.399414,769.164490 645.783752,773.179260 
	C645.379822,773.347961 644.843872,773.200806 644.087158,773.200806 
	C643.495911,770.118408 645.192566,767.636597 645.930847,765.023743 
	C647.786865,758.455017 649.684875,751.884460 651.953918,745.451477 
	C653.190857,741.944458 652.156738,740.386353 648.954468,738.975769 
	C639.505798,734.813782 630.164429,730.405823 620.821289,726.008667 
	C619.093384,725.195557 616.940857,724.852844 615.665161,721.915039 
	C621.227844,719.135254 626.764771,716.271423 632.398865,713.613770 
	C634.022705,712.847839 635.633240,714.003479 637.140625,714.669067 
	C642.930542,717.225525 648.687622,719.856812 654.493835,722.375183 
	C656.135498,723.087341 657.754395,724.064697 659.595398,723.916626 
	C664.086975,718.096069 662.974487,712.672791 659.503479,706.874084 
	C656.174622,701.312988 656.498291,701.119324 662.327271,698.135376 
	C672.435547,692.960876 672.455078,692.950867 677.548950,702.909546 
	C687.258728,721.892334 696.834717,740.944824 706.722107,759.834473 
	C708.965759,764.120667 708.804932,766.332886 704.080261,768.621948 
	C693.395386,773.798828 693.513733,774.050171 688.131165,763.388672 
	C683.411011,754.039124 678.697998,744.686035 673.529053,734.436523 
	C670.179504,740.575500 668.793091,746.466919 666.560913,752.431274 
z"/>
<path fill="#000000" opacity="1.000000" stroke="none" 
	d="
M289.189270,403.407593 
	C267.904572,406.780304 249.973083,386.921783 255.003372,366.059021 
	C259.835327,346.018921 278.651337,335.790497 296.682739,343.401978 
	C302.571655,345.887817 302.837219,346.476501 300.246674,352.178436 
	C295.842163,361.873199 291.386169,371.544525 286.969452,381.233765 
	C286.298218,382.706207 285.332489,384.122681 285.641937,386.174194 
	C290.820679,387.561279 294.426147,384.920654 297.394775,381.513397 
	C301.491760,376.811127 303.603394,371.145050 302.576324,364.884277 
	C301.985535,361.283112 303.128021,359.894592 306.438141,358.841614 
	C315.825439,355.855377 316.889954,356.436035 317.743286,366.231964 
	C319.121124,382.049164 305.335968,400.238800 289.189270,403.407593 
M271.615814,379.549438 
	C272.653290,380.572449 273.977264,382.321350 275.094971,380.150452 
	C278.825470,372.904846 282.391418,365.560181 285.265991,357.581146 
	C278.944427,356.438263 274.481140,358.121887 271.494751,362.721527 
	C268.086426,367.971069 267.393036,373.505371 271.615814,379.549438 
z"/>
<path fill="#000000" opacity="1.000000" stroke="none" 
	d="
M372.148071,682.565674 
	C387.185242,679.741760 405.592133,691.405090 410.841003,706.698364 
	C415.581787,720.511292 408.671448,736.516113 395.057190,743.254578 
	C382.214813,749.611145 366.510254,745.814697 356.356079,733.898926 
	C347.615875,723.642395 347.261902,708.979309 355.242004,697.312988 
	C357.256927,694.367249 358.870911,693.713867 362.017059,695.925232 
	C371.134033,702.333496 380.460907,708.443604 389.726532,714.639221 
	C391.074951,715.540771 392.243713,716.857544 394.321350,716.880676 
	C396.911774,712.876709 395.094330,709.207092 392.943817,705.928711 
	C389.377869,700.492554 383.944702,697.012756 377.644836,696.692261 
	C372.344543,696.422668 371.150177,693.895447 370.979431,689.703979 
	C370.883820,687.358276 369.389465,684.794250 372.148071,682.565674 
M384.541046,730.295959 
	C385.735626,729.508301 387.362244,729.115662 387.392090,726.550537 
	C380.695343,721.985718 373.720612,717.231384 366.089874,712.029907 
	C364.532806,718.063782 364.724640,722.674683 368.555176,726.410156 
	C372.810944,730.560120 377.724182,732.979736 384.541046,730.295959 
z"/>
<path fill="#000000" opacity="1.000000" stroke="none" 
	d="
M472.912933,191.641495 
	C484.053802,195.026047 489.967651,202.748672 493.108582,213.091339 
	C494.208984,216.714874 493.669525,218.729675 489.376129,219.775879 
	C478.880188,222.333542 468.517090,225.442383 458.125916,228.418076 
	C456.425873,228.904922 454.462524,228.858490 452.834686,230.608215 
	C454.666779,234.654068 458.299744,236.161896 462.260590,236.593109 
	C469.269409,237.356186 475.595764,235.322830 480.242310,229.911285 
	C482.564758,227.206467 484.224915,227.389526 486.921570,229.087448 
	C495.665222,234.592896 495.841827,235.901291 488.103119,242.877823 
	C476.707214,253.151306 449.698242,257.580078 437.358185,239.389328 
	C423.960541,219.639481 435.780426,193.499908 459.615997,190.872314 
	C463.925049,190.397293 468.263214,190.297623 472.912933,191.641495 
M454.174683,207.568634 
	C451.600128,209.580170 449.646912,211.992935 449.270142,215.373795 
	C449.013092,217.680725 449.942780,219.113510 452.386993,218.460144 
	C459.715729,216.501099 467.000488,214.377396 474.371429,212.298492 
	C470.995422,204.479004 463.713318,202.762848 454.174683,207.568634 
z"/>
<path fill="#000000" opacity="1.000000" stroke="none" 
	d="
M273.963531,486.274323 
	C273.040466,483.803589 269.744904,482.308289 270.942322,479.967468 
	C272.669586,476.590912 275.892548,474.211578 278.823303,471.757477 
	C279.532288,471.163818 280.426086,471.400665 281.134216,471.924133 
	C281.799500,472.415924 282.434937,472.965881 283.006561,473.563751 
	C294.260864,485.334045 295.121552,519.361633 271.659332,527.860840 
	C259.560791,532.243530 248.273117,530.440918 238.800797,521.421143 
	C229.749207,512.801941 226.832016,497.247833 232.018661,485.231506 
	C237.085449,473.492920 246.748093,468.134399 259.142944,467.130646 
	C262.606201,466.850159 264.243439,468.207397 264.380402,471.960876 
	C264.810852,483.755951 265.532898,495.540558 266.166107,507.327911 
	C266.225677,508.437012 266.454956,509.536987 266.604187,510.632050 
	C275.045105,509.330994 278.417358,496.317078 273.963531,486.274323 
M252.818802,511.456055 
	C253.738068,511.419525 254.575348,511.016510 254.585510,510.086090 
	C254.674545,501.928040 255.330856,493.719360 253.218201,485.636017 
	C247.393311,487.182831 244.178757,491.120422 243.487808,497.092010 
	C242.820114,502.862640 246.153412,508.361755 252.818802,511.456055 
z"/>
<path fill="#000000" opacity="1.000000" stroke="none" 
	d="
M373.529785,296.094421 
	C369.978394,308.319244 362.451935,316.584656 351.110168,321.051147 
	C339.678528,325.553101 329.065155,323.513275 320.164520,315.029175 
	C311.143890,306.430664 307.681824,295.984253 311.678497,283.746979 
	C318.620544,262.491119 342.802216,252.560837 360.098541,263.798645 
	C371.126373,270.963654 376.000977,282.438782 373.529785,296.094421 
M330.837036,280.344910 
	C330.066162,281.423492 329.146637,282.426086 328.549835,283.593658 
	C325.878571,288.819885 326.378876,293.906921 329.774628,298.592438 
	C333.362701,303.543274 338.155334,307.052399 344.454834,306.306427 
	C350.383301,305.604431 354.875854,302.271912 356.790100,296.154938 
	C358.671265,290.143738 356.029449,283.339661 349.930145,278.906403 
	C343.592926,274.300201 338.319122,274.561768 330.837036,280.344910 
z"/>
<path fill="#000000" opacity="1.000000" stroke="none" 
	d="
M791.659180,650.363647 
	C789.101807,658.155273 785.182312,664.668518 779.679993,670.187134 
	C770.031494,679.864380 759.581665,681.250549 748.096619,673.714966 
	C739.054016,667.781860 730.453430,661.173462 721.688416,654.821045 
	C720.916992,654.262024 720.032959,653.472229 719.799255,652.624756 
	C718.817505,649.064819 728.371948,639.751160 732.410095,640.614685 
	C732.984741,630.952148 737.160339,623.145996 744.953186,617.423401 
	C752.007446,612.243286 759.985229,612.370056 766.661926,617.596191 
	C772.730591,622.346436 774.418579,629.777710 771.290222,637.867737 
	C769.098938,643.534302 765.339050,648.241699 762.003784,653.214111 
	C760.907715,654.848022 759.317200,656.202515 758.925232,658.249512 
	C762.348999,661.498230 765.958252,661.709473 769.856873,658.560364 
	C775.006714,654.400513 777.984192,648.843140 778.748901,642.329163 
	C779.214661,638.361145 780.847534,637.307678 784.671265,638.011597 
	C794.529846,639.826355 794.652893,639.882019 791.659180,650.363647 
M754.785828,644.262085 
	C755.790771,642.541260 756.852417,640.850586 757.787170,639.092407 
	C759.141968,636.544128 758.635071,634.198547 756.558472,632.313477 
	C754.475952,630.422974 752.049133,630.344055 749.597290,631.607971 
	C744.726685,634.118652 741.804382,641.575989 743.623962,646.733643 
	C744.392700,648.912659 745.829956,650.615051 748.016785,651.173096 
	C750.308716,651.757812 750.912292,649.389404 752.052002,648.101624 
	C752.929199,647.110229 753.609436,645.944519 754.785828,644.262085 
z"/>
<path fill="#000000" opacity="1.000000" stroke="none" 
	d="
M735.886353,675.113281 
	C745.411438,685.573975 747.310486,697.084778 741.585754,709.548889 
	C735.749512,722.255798 722.638733,730.165039 709.624084,729.387878 
	C702.465576,728.960449 701.536560,727.532715 704.043457,720.778748 
	C704.622559,719.218628 705.287109,717.689087 705.830078,716.116943 
	C706.632507,713.793335 707.709900,712.796387 710.605347,713.277466 
	C718.326538,714.560364 724.919250,710.156494 727.102295,702.843628 
	C729.143127,696.007019 725.034485,687.705383 717.901306,684.252808 
	C711.568054,681.187439 703.541687,683.485229 699.378723,689.558105 
	C698.025818,691.531799 697.045715,693.736755 697.343079,696.103943 
	C697.886902,700.432922 695.875854,702.198364 691.841309,702.444763 
	C690.860962,702.504639 689.908264,702.932129 688.930298,703.128296 
	C682.022461,704.513794 679.992920,702.582703 680.977539,695.420288 
	C682.883728,681.553955 691.552490,673.106689 703.865112,668.177429 
	C715.714111,663.433838 726.390930,666.229431 735.886353,675.113281 
z"/>
<path fill="#000000" opacity="1.000000" stroke="none" 
	d="
M234.972443,460.929871 
	C233.601089,461.117920 232.607925,461.252319 231.618088,461.231232 
	C231.164261,461.221588 230.716965,460.906250 229.981216,460.617493 
	C230.234787,455.489716 231.442535,450.521912 232.814255,445.612091 
	C233.537155,443.024628 236.153122,443.177856 238.189163,442.770447 
	C248.767487,440.653870 259.363770,438.627228 269.947479,436.537231 
	C270.868591,436.355347 271.936707,436.310883 272.689880,434.804474 
	C264.260223,429.056183 255.872345,423.141022 247.284988,417.531219 
	C237.125427,410.894318 239.469528,412.625366 241.221771,402.438446 
	C241.570068,400.413635 241.213776,398.019165 243.680420,395.891785 
	C248.565979,399.101868 253.653809,402.380432 258.675446,405.757385 
	C269.989502,413.365814 281.229462,421.085419 292.598541,428.610229 
	C295.007080,430.204376 296.079132,431.871338 295.396698,434.763519 
	C294.520782,438.475739 293.846771,442.238281 293.172913,445.994751 
	C292.545105,449.494751 289.608032,449.594116 287.090363,450.120850 
	C269.853027,453.726837 252.599976,457.257660 234.972443,460.929871 
z"/>
<path fill="#000000" opacity="1.000000" stroke="none" 
	d="
M770.648193,581.628418 
	C775.664246,580.995483 779.945435,582.234009 784.096497,584.081543 
	C789.718628,586.583740 795.356018,589.056274 800.919250,591.684570 
	C803.910828,593.097839 806.026672,592.831482 807.043457,589.365417 
	C808.074463,585.850708 810.131958,585.556274 813.052673,587.272278 
	C814.475220,588.108093 816.067139,588.679688 817.624512,589.256958 
	C820.594543,590.357910 821.532959,592.277588 819.878113,595.048889 
	C817.947021,598.282776 818.833862,599.991699 822.275696,601.403320 
	C833.017212,605.808838 830.701904,604.872253 826.962158,614.064331 
	C826.711731,614.680054 826.332458,615.253906 826.154785,615.887024 
	C824.789795,620.751892 822.325989,621.508850 817.765381,619.096130 
	C810.836853,615.430725 810.745728,615.757507 807.308899,622.757080 
	C806.341248,624.727905 806.101440,628.157043 803.365967,627.899841 
	C799.615173,627.547241 796.064270,625.679199 793.074219,623.261169 
	C791.874939,622.291321 792.925781,620.768372 793.429871,619.564148 
	C794.701355,616.526367 796.001831,613.500671 797.527893,609.912537 
	C789.811890,606.446777 782.519958,602.886047 774.998352,599.904663 
	C770.778870,598.232300 766.955200,601.036621 766.500793,606.322510 
	C766.110718,610.859924 764.186035,611.359558 760.316101,610.747803 
	C751.916016,609.419800 750.928040,608.078918 753.513123,599.613647 
	C756.164551,590.931152 760.516785,583.769653 770.648193,581.628418 
z"/>
<path fill="#000000" opacity="1.000000" stroke="none" 
	d="
M333.458405,347.375793 
	C332.666504,348.474976 331.993103,349.241730 331.548370,350.123779 
	C329.736938,353.716736 327.719177,353.689636 324.496643,351.404266 
	C305.236938,337.745453 285.881073,324.220154 266.432068,310.832275 
	C262.761627,308.305695 262.093658,306.400116 264.950500,302.590820 
	C273.278625,291.486267 270.173126,291.497131 281.943329,299.583893 
	C299.075745,311.354828 316.038879,323.371887 333.096924,335.251373 
	C339.072601,339.412872 339.103455,339.368958 334.832611,345.466614 
	C334.451141,346.011292 334.065643,346.553192 333.458405,347.375793 
z"/>
<path fill="#000000" opacity="1.000000" stroke="none" 
	d="
M502.713440,217.278534 
	C502.076996,207.343018 501.523651,197.872543 500.811005,188.414093 
	C500.554535,185.009995 501.734467,183.481445 505.269470,183.585556 
	C507.408295,183.648544 509.570374,183.189117 511.710449,182.883347 
	C515.429077,182.352020 518.498413,182.749939 518.422546,188.196762 
	C523.202881,184.491028 527.830078,182.078964 533.130615,181.025574 
	C536.606323,180.334839 538.226135,181.527573 538.226379,185.033249 
	C538.226440,185.865463 538.354614,186.703934 538.288818,187.528748 
	C538.064514,190.339706 539.532776,193.429550 538.098511,195.886444 
	C536.562317,198.518005 533.178589,197.012039 530.681335,197.737152 
	C523.865784,199.716202 520.095825,204.783218 520.396057,212.922607 
	C520.677856,220.560913 521.422180,228.183716 522.031799,235.807831 
	C522.483032,241.452209 521.930359,242.343628 516.271790,242.247681 
	C512.495300,242.183655 508.137085,244.825272 505.143463,242.200623 
	C502.158783,239.583832 504.031982,234.928055 503.603760,231.193024 
	C503.092834,226.736771 503.004822,222.232056 502.713440,217.278534 
z"/>
<path fill="#000000" opacity="1.000000" stroke="none" 
	d="
M591.281006,239.822601 
	C587.623291,245.689346 583.576416,247.616364 578.377197,246.274948 
	C573.796570,245.093124 570.377625,240.878555 570.195129,236.188751 
	C569.998169,231.127640 572.658508,226.917465 577.254944,225.329987 
	C581.518127,223.857590 585.572632,224.605011 588.818054,227.656754 
	C592.235901,230.870682 593.264771,234.920441 591.281006,239.822601 
z"/>
<path fill="#000000" opacity="1.000000" stroke="none" 
	d="
M574.552856,746.371094 
	C570.792114,740.473022 570.902405,734.854980 574.580383,731.054504 
	C577.998291,727.522705 583.678162,726.642822 587.824402,729.002869 
	C593.319153,732.130310 595.395691,739.454285 592.197998,744.428528 
	C588.520081,750.149780 581.240540,751.082825 574.552856,746.371094 
z"/>
</svg>