<svg version="1.1" id="Layer_1" xmlns="http://www.w3.org/2000/svg" xmlns:xlink="http://www.w3.org/1999/xlink" x="0px" y="0px"
	 width="100%" viewBox="0 0 1024 1024" enable-background="new 0 0 1024 1024" xml:space="preserve">
<path fill="#000000" opacity="1.000000" stroke="none" 
	d="
M687.428101,316.384888 
	C681.811096,325.086578 676.264587,333.404938 670.998901,341.897461 
	C669.008667,345.107391 667.230530,345.300354 664.218323,343.238800 
	C653.484070,335.892151 654.387756,338.558350 660.905823,328.250397 
	C667.997375,317.035553 675.135681,305.850250 681.610840,294.026031 
	C671.679321,301.744965 661.747070,309.462982 651.816895,317.183594 
	C649.844543,318.717072 647.887451,320.270081 645.910522,321.797577 
	C639.094543,327.064026 636.193481,326.814117 629.766357,320.949402 
	C627.665039,319.031891 628.343445,317.071808 628.829346,315.010773 
	C632.227417,300.596924 635.668091,286.193115 639.086365,271.783997 
	C639.428711,270.340820 639.712341,268.883759 639.346863,267.054596 
	C634.417480,274.589233 629.462708,282.107513 624.567200,289.664124 
	C621.125854,294.976257 617.672180,300.284576 614.407654,305.705261 
	C612.774475,308.417175 611.160889,308.983734 608.375549,307.192444 
	C597.187439,299.996979 598.414978,302.142120 604.671021,292.326416 
	C616.220459,274.205475 627.943115,256.193695 639.341553,237.978714 
	C641.631836,234.318832 643.592102,233.893600 646.792908,236.410461 
	C648.489319,237.744354 650.393616,238.814316 652.206238,240.000076 
	C660.325073,245.311264 660.247131,245.291458 657.854980,254.952545 
	C654.016418,270.455170 650.289185,285.985382 646.535706,301.508972 
	C646.388367,302.118347 646.455872,302.779694 646.361877,304.614594 
	C651.870544,300.373871 656.694641,296.739105 661.433044,292.995972 
	C671.236633,285.251587 681.066406,277.536835 690.722778,269.611755 
	C693.237671,267.547791 695.252991,267.371460 697.810974,269.191650 
	C702.009766,272.179413 708.254700,274.164612 710.041870,278.174744 
	C712.085205,282.759613 705.972717,286.900085 703.447510,291.205200 
	C698.478943,299.675873 692.923096,307.802094 687.428101,316.384888 
z"/>
<path fill="#000000" opacity="1.000000" stroke="none" 
	d="
M462.760071,784.074341 
	C463.314270,775.310608 463.855499,767.020081 464.483887,757.394043 
	C459.212402,764.390869 455.926544,771.150391 452.081909,777.542114 
	C447.105682,785.815125 442.157318,794.110046 437.451782,802.537781 
	C435.650787,805.763489 433.583527,806.787170 430.212616,805.287354 
	C429.158051,804.818115 428.008698,804.471924 426.868073,804.302307 
	C422.853821,803.705139 421.434906,801.567688 421.583221,797.441284 
	C422.127258,782.307556 422.358734,767.162537 422.696106,752.021545 
	C422.735443,750.256470 422.701416,748.489746 421.741058,746.465759 
	C415.691864,757.656799 409.637726,768.845215 403.596069,780.040344 
	C401.461670,783.995361 399.262390,787.919678 397.274872,791.947876 
	C396.028290,794.474365 394.412476,795.417725 391.692566,794.344910 
	C388.179108,792.959167 384.206116,792.798035 381.134857,790.570007 
	C380.687531,788.908020 381.528961,787.787842 382.160736,786.643738 
	C393.828339,765.513977 405.585602,744.433105 417.118988,723.230408 
	C418.992493,719.786133 420.877075,718.965576 424.620819,720.135193 
	C439.878845,724.901978 437.038818,721.262634 437.200073,736.921326 
	C437.331787,749.713379 437.226868,762.507935 437.226868,775.929565 
	C439.368317,772.447876 441.415649,769.226318 443.357208,765.942322 
	C449.372284,755.768555 455.441498,745.624695 461.279053,735.349487 
	C462.995667,732.327942 464.900513,731.319092 468.130066,732.689575 
	C469.805817,733.400757 471.604370,733.828796 473.358154,734.348633 
	C481.979248,736.904419 481.640381,736.935730 480.922546,745.673279 
	C479.765869,759.752625 479.138306,773.876343 478.357208,787.985168 
	C477.888397,796.453857 477.504089,804.927979 477.179352,813.403381 
	C477.038910,817.069336 475.760590,818.338440 471.866699,817.361694 
	C461.201660,814.686340 461.134460,814.828552 461.647919,803.972351 
	C461.954285,797.494568 462.376831,791.022217 462.760071,784.074341 
z"/>
<path fill="#000000" opacity="1.000000" stroke="none" 
	d="
M746.226685,451.939056 
	C766.520996,449.771729 786.381470,447.793732 806.200500,445.462921 
	C810.553467,444.951050 812.016846,446.560455 812.192078,450.418427 
	C812.199707,450.584656 812.185303,450.760315 812.233887,450.915039 
	C815.242615,460.502625 811.143860,466.425934 803.224060,471.867096 
	C792.136780,479.484467 781.919434,488.369781 771.355957,496.745422 
	C770.209290,497.654541 768.822754,498.389496 768.076172,500.507660 
	C773.841431,501.448853 779.300232,499.769836 784.754333,499.360291 
	C794.197815,498.651245 803.611511,497.480255 813.010925,496.290833 
	C815.787964,495.939362 816.853333,496.743042 817.407715,499.464569 
	C819.749939,510.963928 819.725159,511.458069 808.307251,512.881958 
	C787.196167,515.514648 766.031738,517.718018 744.899902,520.188171 
	C740.826294,520.664307 739.445007,519.382629 738.384033,515.096924 
	C736.223999,506.371613 739.561401,501.446564 746.422119,496.487823 
	C760.145752,486.568817 773.189392,475.708954 786.200928,464.179016 
	C778.404846,465.014221 770.608948,465.851440 762.812561,466.684082 
	C754.542053,467.567444 746.255615,468.325989 738.007568,469.383820 
	C734.475952,469.836761 733.287048,468.363068 732.828796,465.154663 
	C731.222046,453.903931 731.161072,453.918457 742.837402,452.568573 
	C743.826172,452.454285 744.798157,452.194000 746.226685,451.939056 
z"/>
<path fill="#000000" opacity="1.000000" stroke="none" 
	d="
M261.563416,631.658936 
	C253.619888,634.315613 246.027527,636.787903 238.468231,639.357544 
	C236.165421,640.140381 234.328735,640.464478 233.405060,637.473755 
	C229.489349,624.794983 223.629623,612.659851 222.454559,599.216248 
	C221.443649,587.650696 225.091354,577.868958 234.458008,570.683472 
	C243.836868,563.488647 254.644180,559.551086 266.345581,559.079102 
	C279.488770,558.549011 289.378296,564.897705 295.972382,576.055176 
	C302.642578,587.341553 305.244171,600.226807 309.481995,612.463684 
	C310.605164,615.706970 307.780975,615.902466 305.850250,616.563110 
	C291.217560,621.570312 276.570129,626.534424 261.563416,631.658936 
M270.472107,610.894958 
	C277.367065,608.551208 284.262024,606.207397 291.580841,603.719543 
	C289.415192,597.068115 287.727875,590.835205 284.348846,585.251221 
	C280.317230,578.588806 274.161865,575.791138 266.590607,576.411316 
	C259.718414,576.974243 253.164001,578.991089 247.221878,582.553833 
	C240.633469,586.504028 236.807022,592.009827 237.141418,600.168335 
	C237.373260,605.824707 239.662949,610.793640 241.108749,616.059875 
	C242.089355,619.631775 243.881454,619.922791 247.007141,618.804199 
	C254.529266,616.112183 262.142181,613.673828 270.472107,610.894958 
z"/>
<path fill="#000000" opacity="1.000000" stroke="none" 
	d="
M757.663513,374.605713 
	C764.138550,371.836182 770.311523,369.319702 776.371521,366.555328 
	C778.996460,365.357880 780.605957,365.465912 781.843811,368.391876 
	C786.060852,378.359619 790.865662,388.100159 794.645630,398.226227 
	C799.791138,412.010498 793.693542,423.612549 780.043152,427.576477 
	C774.506531,429.184204 769.511597,428.102966 764.847412,424.961060 
	C763.351013,423.953003 761.932129,422.829834 760.348694,421.664337 
	C755.335693,436.238586 741.583435,442.294769 732.075928,453.228973 
	C728.969055,448.306213 727.268066,443.858978 725.510315,439.439850 
	C724.599915,437.151215 726.338257,436.081024 727.668396,434.892303 
	C732.264282,430.784882 736.914612,426.738434 741.519714,422.641205 
	C750.203369,414.915314 750.597778,409.372864 742.841553,399.465454 
	C735.070740,402.863617 727.060059,406.094971 719.311157,409.864410 
	C715.141235,411.892883 713.028931,411.657410 711.081299,406.967316 
	C706.932678,396.976929 706.661499,397.072479 716.612183,392.679840 
	C730.174255,386.693024 743.747314,380.730896 757.663513,374.605713 
M756.975281,393.932587 
	C758.047424,399.535400 760.577393,404.572845 763.500122,409.345673 
	C765.916443,413.291443 770.637756,413.978394 775.496582,411.699310 
	C780.495850,409.354340 782.473511,405.746368 780.886902,400.920288 
	C779.542969,396.832367 777.636658,392.932556 776.092407,388.906097 
	C775.035400,386.150116 773.302246,386.050385 770.956299,387.165283 
	C766.460266,389.301971 761.922852,391.351410 756.975281,393.932587 
z"/>
<path fill="#000000" opacity="1.000000" stroke="none" 
	d="
M327.469543,710.479797 
	C318.465240,718.402954 309.687958,726.050110 301.024384,733.824097 
	C298.983521,735.655518 297.468994,735.856140 295.628754,733.674500 
	C285.605377,721.791748 286.119537,726.028809 296.091492,716.654541 
	C300.554688,712.458801 305.280975,708.542847 310.881470,703.628052 
	C302.063507,703.905884 296.314240,700.293762 291.779083,694.346008 
	C285.823090,686.534851 284.851990,678.231750 289.573151,669.624207 
	C295.199036,659.367188 303.346405,651.593140 314.492645,647.728821 
	C331.352539,641.883545 346.914825,653.877441 345.995026,671.823975 
	C348.443665,672.310608 349.532074,668.076294 351.914093,669.697449 
	C355.521545,672.152527 357.845612,675.947998 360.440521,679.377686 
	C361.893127,681.297546 359.708008,682.344116 358.566040,683.347290 
	C348.319458,692.348389 338.021179,701.290588 327.469543,710.479797 
M331.234436,665.226929 
	C327.653046,662.484924 323.785919,661.603760 319.541748,663.526489 
	C313.643219,666.198547 308.676910,670.039917 305.247711,675.595825 
	C302.052856,680.772034 302.583008,685.879272 306.526642,690.322693 
	C310.425323,694.715393 315.611511,695.904785 321.011200,693.350830 
	C325.416962,691.267090 329.269531,688.379822 332.319275,684.493408 
	C337.553497,677.823364 337.414459,672.116821 331.234436,665.226929 
z"/>
<path fill="#000000" opacity="1.000000" stroke="none" 
	d="
M358.291870,279.691406 
	C354.873535,272.958008 354.873535,272.958008 361.253265,269.414978 
	C368.618439,265.324677 368.618439,265.324677 372.407898,270.888794 
	C374.604614,265.002411 377.487427,260.027222 382.889130,256.863800 
	C393.160034,250.848755 403.345886,251.517136 411.622711,260.005157 
	C421.360413,269.991425 428.126129,281.693695 425.450806,296.277100 
	C423.136353,308.893188 410.222198,316.799347 397.573730,314.397278 
	C396.962799,314.281250 396.322540,314.319489 394.803711,314.238098 
	C398.874664,321.996613 402.501434,329.254364 406.471924,336.318939 
	C408.258362,339.497528 408.015564,341.239807 404.550323,342.874664 
	C392.934814,348.354858 395.465210,349.626587 389.429718,338.267151 
	C379.111115,318.846436 368.790955,299.426514 358.291870,279.691406 
M379.602600,281.582672 
	C380.479248,288.764862 383.440887,294.961212 388.701294,299.918610 
	C392.945587,303.918396 398.979156,304.317596 403.878571,301.231628 
	C408.859650,298.094177 410.739990,293.280029 409.151642,287.475677 
	C408.003571,283.280365 406.197723,279.365692 403.663757,275.821198 
	C400.251495,271.048126 395.953033,267.853973 389.736664,269.348816 
	C383.815094,270.772766 380.254944,274.556427 379.602600,281.582672 
z"/>
<path fill="#000000" opacity="1.000000" stroke="none" 
	d="
M730.905273,348.119324 
	C733.442444,351.236725 735.712830,354.113708 738.078430,356.910065 
	C739.689880,358.814911 739.528137,360.205566 737.614746,361.949066 
	C730.073853,368.820374 730.091248,368.911011 723.751892,361.249146 
	C718.989258,355.492859 714.337769,349.644531 709.189819,343.285034 
	C703.806702,347.680664 698.745605,351.813416 693.259460,356.293182 
	C699.766418,364.352051 705.989258,371.908081 712.010864,379.621246 
	C713.545776,381.587433 716.964233,383.538391 715.474854,386.157104 
	C713.632263,389.396637 710.093872,391.535614 706.764465,393.425964 
	C705.280518,394.268524 704.417480,392.674164 703.600647,391.667419 
	C693.843567,379.641937 684.136108,367.575928 674.319641,355.599243 
	C672.288696,353.121460 672.452820,351.444244 674.976196,349.416168 
	C693.533203,334.501404 712.051453,319.537628 730.478027,304.462311 
	C733.249817,302.194641 734.876709,302.627991 736.962585,305.250916 
	C746.288940,316.978241 755.685486,328.651703 765.216248,340.213074 
	C767.442078,342.913086 766.649963,344.376495 764.304749,346.280426 
	C756.922607,352.273499 756.977112,352.337036 751.005615,345.018433 
	C746.162842,339.083252 741.217651,333.227905 736.514282,327.184265 
	C734.431458,324.508026 732.820557,324.275482 730.010925,326.374268 
	C719.629456,334.129242 719.552368,334.027069 727.536682,343.960297 
	C728.580017,345.258331 729.631348,346.549957 730.905273,348.119324 
z"/>
<path fill="#000000" opacity="1.000000" stroke="none" 
	d="
M808.247375,584.057861 
	C807.590271,594.172058 804.795715,603.107239 799.177307,611.078857 
	C797.428406,613.560303 795.221863,615.524536 792.718201,617.249451 
	C790.169922,619.005066 788.182129,618.953186 786.492676,616.175842 
	C785.977417,615.328857 785.267395,614.599792 784.642090,613.820312 
	C780.237183,608.328796 780.264343,608.359863 785.605347,603.581665 
	C790.747620,598.981201 792.908691,592.886414 793.474548,586.275391 
	C793.809814,582.358887 792.244507,579.035156 788.026428,577.772461 
	C784.064453,576.586487 781.064636,578.274292 779.097473,581.504883 
	C775.551147,587.328857 772.653442,593.570557 768.853516,599.212708 
	C760.127380,612.169495 744.934753,614.092896 732.916931,604.118042 
	C728.769958,600.676086 726.426880,596.245605 725.343567,590.991577 
	C722.424072,576.832764 732.134766,556.066895 744.630859,549.396973 
	C748.386414,547.392456 751.144531,547.230347 753.226257,551.392212 
	C753.593567,552.126465 754.204956,552.736023 754.681091,553.418945 
	C758.804993,559.333618 759.340637,559.685181 752.559753,563.163574 
	C744.400757,567.348877 740.467346,574.810303 740.264221,584.023254 
	C740.179016,587.889099 741.960144,590.714355 745.704468,592.133362 
	C749.586182,593.604309 752.977539,592.821655 755.618530,589.675842 
	C757.102539,587.908325 758.279846,585.865173 759.465271,583.869019 
	C761.589661,580.291565 763.454041,576.551025 765.713501,573.064270 
	C772.349731,562.823303 780.713074,558.897766 790.421936,561.249451 
	C801.399963,563.908569 807.035828,570.978577 808.247375,584.057861 
z"/>
<path fill="#000000" opacity="1.000000" stroke="none" 
	d="
M587.116943,738.931641 
	C582.895691,736.056763 578.294922,734.378906 574.773621,731.027039 
	C580.787048,724.279297 588.903503,722.878296 596.041321,726.965820 
	C602.250183,730.521179 608.516541,733.976379 614.771851,737.449951 
	C615.162476,737.666870 615.678467,737.658020 616.945251,737.924316 
	C614.314697,731.683899 612.145386,725.821350 609.390076,720.248474 
	C607.496582,716.418701 608.499634,714.767151 612.194946,713.174744 
	C624.083618,708.051575 621.449219,707.990662 626.070007,718.508423 
	C635.374084,739.686584 644.486877,760.949280 653.898193,782.079346 
	C655.548157,785.783752 654.710083,787.332886 651.200623,788.806946 
	C639.610352,793.675110 641.902283,794.661682 636.896973,783.339783 
	C632.926758,774.359375 629.099792,765.315796 625.166016,756.319153 
	C624.471802,754.731628 624.079956,752.887695 622.087402,751.571472 
	C619.726196,757.618713 618.288452,763.591675 617.365540,769.572632 
	C616.361450,776.079651 613.386780,780.214233 606.937622,781.814758 
	C604.888794,782.323242 603.119202,783.867310 600.889160,783.575012 
	C599.201660,782.263062 600.137512,780.817810 600.493347,779.430115 
	C602.598755,771.218384 604.570435,762.968384 606.895264,754.819092 
	C607.760193,751.787476 606.926575,750.254211 604.307007,748.829895 
	C598.606506,745.730225 593.045532,742.373901 587.116943,738.931641 
z"/>
<path fill="#000000" opacity="1.000000" stroke="none" 
	d="
M367.003235,753.382080 
	C355.545349,752.984436 347.137604,747.669617 340.994080,738.980957 
	C334.343994,729.575867 337.472717,712.978821 346.626801,705.845276 
	C348.787811,704.161377 350.349091,705.341736 352.001923,706.445374 
	C359.893921,711.714966 367.756134,717.029175 375.647736,722.299316 
	C377.150970,723.303162 378.508850,724.608643 380.683624,724.950562 
	C383.645020,720.943542 384.618591,716.635742 381.899689,712.133118 
	C378.664398,706.775146 373.905701,703.686707 367.449493,704.005005 
	C359.839966,704.380127 358.845612,703.619690 356.538513,695.994629 
	C355.854889,693.735168 356.410950,692.601868 358.390228,691.648071 
	C363.245209,689.308594 368.364960,688.882874 373.505157,689.941589 
	C387.644470,692.854126 399.921783,707.547668 398.929565,720.090820 
	C397.537781,737.684387 383.169006,752.887817 367.003235,753.382080 
M358.571228,738.129211 
	C365.791473,740.833801 369.267212,740.012817 373.661041,734.087280 
	C367.443237,729.901489 361.254395,725.735229 355.055939,721.562439 
	C350.442200,728.691833 351.327423,732.839966 358.571228,738.129211 
z"/>
<path fill="#000000" opacity="1.000000" stroke="none" 
	d="
M295.621307,379.102966 
	C297.317322,382.054779 295.454834,384.148438 294.458160,386.325287 
	C290.114746,395.812012 285.671051,405.252808 281.076233,415.112701 
	C286.243835,417.561829 290.591156,417.473511 294.707489,414.485748 
	C299.455627,411.039337 301.946777,403.296234 300.314911,397.942352 
	C299.718231,395.984741 297.299957,393.911499 299.180267,392.008942 
	C301.600616,389.559998 304.680389,387.658569 308.009491,386.565552 
	C310.007172,385.909607 310.925537,387.840729 311.685913,389.266144 
	C314.743591,394.998016 316.475128,400.964996 314.312378,407.460571 
	C310.176880,419.881104 303.960999,430.260559 289.578796,432.618439 
	C274.883209,435.027679 255.276596,422.983856 251.838669,409.069580 
	C248.781677,396.697021 253.333282,386.218262 262.066742,377.926971 
	C270.258911,370.149628 280.058716,371.596588 289.606171,375.895325 
	C291.572174,376.780518 293.447418,377.867310 295.621307,379.102966 
M272.440826,407.799683 
	C275.368835,401.782196 278.509460,395.853058 280.717407,389.576904 
	C274.218628,386.425049 269.778290,387.511414 266.613434,392.600525 
	C263.236115,398.031433 264.009583,404.890228 268.345215,408.399384 
	C269.643494,409.450226 270.830536,410.156799 272.440826,407.799683 
z"/>
<path fill="#000000" opacity="1.000000" stroke="none" 
	d="
M484.413025,278.199371 
	C478.530518,291.635956 467.169525,295.155792 454.417633,295.172699 
	C442.523529,295.188446 434.578247,288.556305 429.867859,277.854889 
	C426.694733,270.645782 425.800079,263.036499 426.853241,255.353928 
	C429.331604,237.274551 453.437622,225.701355 469.225342,234.966553 
	C478.137939,240.196991 480.757843,249.164795 482.179901,258.587402 
	C482.605774,261.409302 480.255524,262.098785 478.044312,262.613708 
	C468.647369,264.801910 459.260040,267.031525 449.855927,269.188202 
	C444.782867,270.351593 444.154297,271.971497 447.262146,276.243134 
	C452.933197,284.037750 466.076508,282.569611 471.132935,273.329071 
	C472.672150,270.516144 474.353058,269.403015 476.954315,271.015686 
	C479.842529,272.806274 486.008850,271.182800 484.413025,278.199371 
M447.872742,247.187195 
	C443.597198,250.019424 441.746796,253.851013 442.843933,259.615082 
	C450.529358,258.242523 457.820496,256.583649 464.956024,254.288986 
	C462.987213,245.552307 457.508301,243.197128 447.872742,247.187195 
z"/>
<path fill="#000000" opacity="1.000000" stroke="none" 
	d="
M272.196777,510.905762 
	C270.683197,508.750214 267.025940,508.397888 267.503876,505.761658 
	C268.120331,502.361359 270.472992,499.494385 272.562622,496.703796 
	C273.755310,495.110992 275.274506,496.050934 276.613037,496.707520 
	C280.973267,498.846375 284.072540,502.301086 286.229584,506.535034 
	C297.084167,527.841125 283.293121,550.573303 259.522919,551.465393 
	C240.909180,552.163940 231.513046,542.894226 228.283829,533.386902 
	C225.803528,526.084473 225.691681,518.598755 227.887466,511.276398 
	C230.776031,501.643768 239.457275,496.013092 251.056000,495.678802 
	C260.538574,495.405487 260.761902,495.609009 261.175293,505.029541 
	C261.547180,513.503052 262.072510,521.974182 262.213196,530.451660 
	C262.286530,534.872253 264.089355,535.121582 267.504150,533.622925 
	C275.937378,529.921753 278.110229,520.211548 272.196777,510.905762 
M244.101807,532.477966 
	C246.303726,533.393860 248.277359,535.333801 250.643143,534.276184 
	C250.643143,527.571350 250.673691,521.140320 250.629501,514.709717 
	C250.609192,511.754089 249.080963,511.062073 246.339371,511.825836 
	C238.023605,514.142395 236.500488,524.778442 244.101807,532.477966 
z"/>
<path fill="#000000" opacity="1.000000" stroke="none" 
	d="
M326.175415,354.001831 
	C321.050781,350.985229 317.082794,347.198395 313.773865,342.773102 
	C302.960510,328.311401 304.837067,313.293274 318.846252,301.348877 
	C331.108795,290.893646 347.892090,292.149445 359.587860,304.397308 
	C371.766815,317.151184 373.667847,331.294617 364.855377,343.586609 
	C354.958191,357.391663 340.552124,361.373596 326.175415,354.001831 
M340.139404,342.414520 
	C346.272583,343.341187 350.415802,340.118011 353.382812,335.414276 
	C356.268524,330.839386 355.138123,326.115570 352.320251,321.810822 
	C349.748932,317.882660 346.530182,314.522278 342.616028,311.896118 
	C336.818909,308.006561 331.714355,308.345123 326.736389,312.866486 
	C321.832581,317.320496 320.772766,322.700958 324.110870,328.596924 
	C327.627594,334.808411 332.360748,339.842926 340.139404,342.414520 
z"/>
<path fill="#000000" opacity="1.000000" stroke="none" 
	d="
M711.414429,687.422852 
	C714.882202,691.387207 717.449951,691.638550 720.650391,688.324280 
	C724.745789,684.083069 726.946716,678.965942 726.843445,672.986572 
	C726.788879,669.825500 727.218323,667.515320 731.431641,667.696594 
	C738.538818,668.002441 740.379517,668.829895 740.245728,673.524597 
	C739.851562,687.351624 733.150940,697.617493 721.414246,704.428101 
	C714.594849,708.385315 708.122681,705.872803 702.449402,701.344055 
	C695.940796,696.148499 689.642395,690.690002 683.230225,685.372864 
	C681.202148,683.691284 679.181396,682.333923 676.783081,685.023071 
	C673.240479,688.995239 671.352539,684.367798 668.906921,683.239075 
	C666.329712,682.049561 665.435181,680.047913 666.803894,677.081543 
	C669.928162,670.310181 675.536011,666.889893 684.193054,667.272522 
	C682.867249,660.923096 683.860718,655.091919 687.928101,649.902039 
	C694.559448,641.440613 703.295776,639.369568 712.090637,644.398499 
	C721.058716,649.526550 723.659912,657.768555 719.264160,667.926941 
	C717.616150,671.735291 715.452148,675.319397 713.545593,679.017212 
	C712.246216,681.537354 710.870361,684.045715 711.414429,687.422852 
M707.782349,663.003296 
	C704.515381,656.298584 699.343689,655.542053 694.704712,661.090271 
	C689.616089,667.176453 692.820068,675.786377 701.846802,679.263367 
	C703.710876,674.052917 707.986755,669.845215 707.782349,663.003296 
z"/>
<path fill="#000000" opacity="1.000000" stroke="none" 
	d="
M672.257507,748.562378 
	C666.487244,750.935120 661.044495,751.643005 655.423889,749.356628 
	C652.417603,748.133667 651.183899,746.379333 652.643860,743.183960 
	C653.261230,741.832703 653.649109,740.360840 654.009216,738.910950 
	C654.867798,735.453552 656.249329,733.929565 660.340637,735.316101 
	C665.769592,737.156067 670.562561,734.929626 674.162292,730.698486 
	C677.665833,726.580200 677.558838,721.837585 675.442017,717.095398 
	C673.376221,712.467346 670.391602,708.475464 666.434082,705.296326 
	C662.169983,701.870911 657.424194,701.007935 652.460876,703.559570 
	C647.416260,706.153015 644.898560,710.294983 645.272522,716.150146 
	C645.640869,721.916077 644.961914,722.264465 635.872253,722.991882 
	C630.958679,723.385010 631.108887,719.751282 630.805115,716.720337 
	C629.690186,705.597473 635.379456,697.994385 644.101929,692.238586 
	C653.249756,686.202271 662.965576,684.776367 672.880188,690.202942 
	C681.889282,695.133911 687.968201,702.812195 690.987915,712.546326 
	C695.632080,727.516785 688.989685,740.125732 672.257507,748.562378 
z"/>
<path fill="#000000" opacity="1.000000" stroke="none" 
	d="
M285.936279,478.234833 
	C266.376587,481.329254 247.237045,484.376495 227.382614,487.537567 
	C227.365997,481.727570 228.662506,477.144043 229.917816,472.582733 
	C230.392593,470.857574 232.120224,470.822052 233.625366,470.608795 
	C244.822708,469.022308 256.018005,467.421051 267.209534,465.794067 
	C269.298920,465.490326 271.368439,465.049988 274.757019,464.434967 
	C264.280426,458.254883 254.875244,452.743469 245.506577,447.170624 
	C234.822266,440.815216 234.493286,439.824707 238.750778,427.937378 
	C238.908966,427.495667 239.281097,427.130585 239.500671,426.807587 
	C241.102692,426.352448 242.158676,427.272858 243.280594,427.959106 
	C259.045166,437.601410 274.784241,447.285858 290.591644,456.857422 
	C293.233063,458.456818 294.377289,460.190063 293.434174,463.360352 
	C292.490479,466.532684 291.786377,469.826782 291.452179,473.115753 
	C291.116028,476.424072 289.328094,477.777466 285.936279,478.234833 
z"/>
<path fill="#000000" opacity="1.000000" stroke="none" 
	d="
M771.191528,636.030945 
	C779.671875,641.047241 780.742676,646.192139 775.285339,654.013184 
	C773.870667,656.040405 772.536316,655.141174 770.999939,654.460327 
	C761.781433,650.374817 761.828369,650.410034 756.921509,659.307678 
	C755.951538,661.066589 755.498474,664.201782 752.845703,663.649536 
	C749.473816,662.947510 746.235657,661.215942 743.840759,658.599365 
	C742.660522,657.309753 744.081177,655.802185 744.674438,654.472473 
	C746.286316,650.860046 749.040222,647.793274 750.020752,643.474731 
	C741.670349,638.569336 733.272156,633.847412 724.394165,630.099365 
	C720.281799,628.363220 716.424133,631.203857 715.623840,636.890442 
	C715.079956,640.755676 713.489624,641.819763 710.090454,640.922668 
	C706.723145,640.033997 701.429871,641.380737 701.979492,635.307861 
	C702.715454,627.176453 706.010315,620.159485 712.981934,615.457275 
	C719.200439,611.263000 725.718262,612.197205 731.976501,615.395447 
	C739.389587,619.183716 746.699768,623.182556 753.953003,627.270203 
	C756.860474,628.908813 758.791870,628.878662 760.203918,625.503357 
	C762.717163,619.495728 766.081116,623.854126 769.043884,624.986755 
	C772.144104,626.171875 774.442200,627.854858 771.827759,631.650452 
	C771.043457,632.789062 769.977722,634.143616 771.191528,636.030945 
z"/>
<path fill="#000000" opacity="1.000000" stroke="none" 
	d="
M263.711670,344.313202 
	C256.363373,339.017212 256.363373,339.017212 261.324341,331.910400 
	C265.543335,325.866455 265.539581,325.871735 271.467804,330.138428 
	C286.868134,341.222351 302.264771,352.311340 317.678223,363.377014 
	C323.648743,367.663422 323.667511,367.637268 328.587982,362.368073 
	C328.750244,362.354095 328.956543,362.268127 329.068390,362.336548 
	C332.688995,364.550842 339.494904,364.134613 338.564575,370.327393 
	C337.421417,377.936829 327.727783,384.133789 320.922058,382.845581 
	C317.102844,382.122620 313.706726,380.418121 310.554688,378.134308 
	C295.056183,366.904816 279.527740,355.716583 263.711670,344.313202 
z"/>
<path fill="#000000" opacity="1.000000" stroke="none" 
	d="
M493.053223,286.582703 
	C492.234192,268.179352 491.534546,250.211975 491.584534,232.220566 
	C491.595673,228.204315 493.162140,226.781433 496.880432,227.029144 
	C497.543457,227.073318 498.219879,227.086716 498.877777,227.009369 
	C503.885132,226.420639 507.991455,227.054504 507.426727,234.834015 
	C512.229309,228.377991 517.599792,225.710373 524.438782,226.350861 
	C528.458618,226.727341 530.776978,228.267899 529.358521,232.791351 
	C528.963013,234.052780 528.605286,235.382843 528.571350,236.690292 
	C528.466370,240.732788 526.839478,241.883575 522.619324,241.455826 
	C513.716125,240.553375 508.733215,244.985733 508.392944,254.052582 
	C508.037170,263.532593 508.182251,273.042023 508.439819,282.529572 
	C508.553284,286.709229 506.972839,288.390411 502.944580,288.017090 
	C499.705322,287.716888 496.291351,289.103577 493.053223,286.582703 
z"/>
<path fill="#000000" opacity="1.000000" stroke="none" 
	d="
M559.525146,292.834869 
	C553.665283,288.632904 552.554932,283.503021 556.126343,278.597870 
	C559.228088,274.337799 565.614990,273.647308 570.418823,277.052673 
	C574.586548,280.007111 575.567993,285.504059 572.704224,289.852783 
	C570.108887,293.793884 565.919495,294.824463 559.525146,292.834869 
z"/>
<path fill="#000000" opacity="1.000000" stroke="none" 
	d="
M539.731018,735.462646 
	C546.731995,732.556946 551.862366,733.692017 554.442383,738.426697 
	C556.621460,742.425598 555.783813,747.483826 552.493835,750.193298 
	C548.511230,753.473083 542.167236,753.604126 538.730835,750.477661 
	C535.406860,747.453369 534.630676,742.116638 537.057129,738.203735 
	C537.650208,737.247253 538.603577,736.514160 539.731018,735.462646 
z"/>
</svg>